# xmcd
#
# Track frame offsets:
#   150
#   15987
#   26403
#   38020
#   56378
#   78363
#   91424
#   107316
#   124698
#   138099
#   155127
#   174937
#   190184
#   206007
#   221348
#   240449
#   256934
#   274485
#   289352
#
# Disc length: 4024 seconds
#
# Revision: 0
# Processed by: cddbd v1.5.1PL2 Copyright (c) Steve Scherf et al.
# Submitted via: GXTranscoder 2.0.1939
#
DISCID=f80fb613
DTITLE=j - j
DYEAR=2000
DGENRE=Blues
TTITLE0=1
TTITLE1=2
TTITLE2=3
TTITLE3=4
TTITLE4=5
TTITLE5=6
TTITLE6=7
TTITLE7=8
TTITLE8=9
TTITLE9=10
TTITLE10=11
TTITLE11=12
TTITLE12=13
TTITLE13=14
TTITLE14=15
TTITLE15=16
TTITLE16=17
TTITLE17=18
TTITLE18=19
EXTD=
EXTT0=
EXTT1=
EXTT2=
EXTT3=
EXTT4=
EXTT5=
EXTT6=
EXTT7=
EXTT8=
EXTT9=
EXTT10=
EXTT11=
EXTT12=
EXTT13=
EXTT14=
EXTT15=
EXTT16=
EXTT17=
EXTT18=
PLAYORDER=
